Simulation
nRows=48
nColumns=15
endheader
time  TH_x TH_y TH_z SC_y  SC_z  SC_x  AC_y  AC_z  AC_x  GH_y  GH_z  GH_yy  EL_x  PS_y
0.0  0.000000  0.000000  0.000000  -28.493705085448994  -0.981054787418454  12.988322222957494  55.89052121230647  -8.300552948249372  -13.923444859410093  21.820995457232602  12.217338946282391  1.9795049877065407  25.69628378760414  0.000000
0.015  0.000000  0.000000  0.000000  -28.58186849062843  -0.7743578853731758  13.095932581086386  55.81899173494436  -7.991934860169703  -13.946309551390906  21.34147602468192  12.547244984594478  2.315999398292946  25.632418711908006  0.000000
0.03  0.000000  0.000000  0.000000  -28.563982843924315  -0.6002858876558458  13.19878850029714  55.78195346033241  -7.765916021825459  -14.000957134580492  20.918691673599582  12.906318604613812  2.6140896693332123  25.576728304548382  0.000000
0.045  0.000000  0.000000  0.000000  -28.599845010858758  -0.4624809345922004  13.302805811148463  55.75797783993732  -7.621478065417345  -14.048850197781766  20.589764385921754  13.318594550192728  2.798765813848824  25.534771538260948  0.000000
0.06  0.000000  0.000000  0.000000  -28.647037502580755  -0.3474607544831516  13.410369805083722  55.72212342841985  -7.54113870681874  -14.089059636308901  20.372459815589448  13.755250023572177  2.8207367216544177  25.493031815005935  0.000000
0.075  0.000000  0.000000  0.000000  -28.706643522042082  -0.2528246051392303  13.520380489547506  55.69847148797457  -7.513595747626294  -14.126906459168563  20.259589601752346  14.223954374417648  2.701484777333989  25.44475958627226  0.000000
0.09  0.000000  0.000000  0.000000  -28.77067235980684  -0.17181088500663397  13.635585447517839  55.6752262787771  -7.524838478246327  -14.161215145806512  20.22236169244598  14.714328133396105  2.467621545403956  25.396891404563725  0.000000
0.105  0.000000  0.000000  0.000000  -28.838271655977568  -0.10116733388215322  13.755338100941822  55.65688302428947  -7.566025014516486  -14.192851573474163  20.242580363746427  15.228974492784626  2.1406883528448146  25.343941605330883  0.000000
0.12  0.000000  0.000000  0.000000  -28.908728253010775  -0.03853805778078422  13.879159316739743  55.64313652771919  -7.626917221175934  -14.224433984556356  20.306363816146515  15.767083403191972  1.7352592169687369  25.28854325521855  0.000000
0.135  0.000000  0.000000  0.000000  -28.982809409729587  0.018348818772639584  14.00787489899245  55.63284083291814  -7.701457383995514  -14.255028111329215  20.391517169727866  16.328359526544386  1.2775631082462755  25.22967637690566  0.000000
0.15  0.000000  0.000000  0.000000  -29.059178217947796  0.06989044104210168  14.141385440378507  55.62743734621272  -7.783930615792876  -14.287267866097027  20.492037680260626  16.911912798847997  0.7752758159123978  25.16720375694272  0.000000
0.16499999999999998  0.000000  0.000000  0.000000  -29.13797873875777  0.11662762779823445  14.280899508185696  55.625991918785616  -7.871833671247708  -14.320466921354647  20.5953309390237  17.516792144601478  0.2444756436573053  25.09987241055126  0.000000
0.18  0.000000  0.000000  0.000000  -29.216904990792386  0.15974240483318827  14.425274742586446  55.6293177708278  -7.961212090671788  -14.355956961035544  20.70243767476595  18.14125413412829  -0.3149463976415372  25.028630897486586  0.000000
0.195  0.000000  0.000000  0.000000  -29.296975653740766  0.20099530197101279  14.57522099538436  55.63716406249189  -8.05118058954496  -14.391525116134106  20.806124755343156  18.78451565182081  -0.8909485797841645  24.953356300058676  0.000000
0.21  0.000000  0.000000  0.000000  -29.37662713101958  0.24157139130164337  14.729856577148318  55.64994132155786  -8.13980991542634  -14.427713548872385  20.908997971270768  19.44553105541791  -1.4846715338999452  24.87475442367686  0.000000
0.22499999999999998  0.000000  0.000000  0.000000  -29.457224781865033  0.28231317391180294  14.890015165072493  55.66716504615978  -8.226448603511546  -14.463483086741812  21.006360548585747  20.123792230845623  -2.0877268534115947  24.793481322092028  0.000000
0.24  0.000000  0.000000  0.000000  -29.537816536405153  0.3240265481704343  15.054956669818914  55.689274633852655  -8.309736426197123  -14.499115934890794  21.099407413706743  20.818501785303468  -2.699348055037095  24.70982199843194  0.000000
0.255  0.000000  0.000000  0.000000  -29.620060777889556  0.36737693132390914  15.225449730222133  55.71593505551074  -8.389197297547758  -14.533693473161922  21.18495755119275  21.529069433260908  -3.3132341262193803  24.624119157923364  0.000000
0.27  0.000000  0.000000  0.000000  -29.703384180305658  0.4130045935498861  15.400732650339808  55.74757390543609  -8.463869639251097  -14.567188225961118  21.26406490208834  22.25469289521096  -3.9286095788405104  24.536358990308276  0.000000
0.285  0.000000  0.000000  0.000000  -29.789543046578796  0.46146455887737875  15.581443571215404  55.78406355914392  -8.533368087265954  -14.598689863413611  21.334828272974065  22.994605229734283  -4.540860432644509  24.44668476568097  0.000000
0.3  0.000000  0.000000  0.000000  -29.87794742505056  0.5133137922656692  15.766734525488756  55.825791614010384  -8.596913943651241  -14.627865710423068  21.39817890229453  23.747735631058507  -5.149136520235654  24.355018733224124  0.000000
0.315  0.000000  0.000000  0.000000  -29.97012824002797  0.5690895600167076  15.957025001453843  55.87283029356085  -8.654097637004934  -14.653758466715008  21.453220956699493  24.512995627012693  -5.750201576179839  24.261355759631325  0.000000
0.32999999999999996  0.000000  0.000000  0.000000  -30.06513894376333  0.6293633161481536  16.15130800150284  55.92546897104098  -8.704169896052525  -14.675735422855498  21.500818850494063  25.28882326839499  -6.343239678995572  24.16561542005949  0.000000
0.345  0.000000  0.000000  0.000000  -30.16388416759451  0.6947898843241112  16.349721407575696  55.983906421156966  -8.74659441937336  -14.69277048890419  21.540709135229825  26.073562497663357  -6.925930664062247  24.067655857814447  0.000000
0.36  0.000000  0.000000  0.000000  -30.264593756834863  0.7660695482022649  16.55098929296157  56.048253035059105  -8.780566733102999  -14.704007105833579  21.573709872849246  26.864905503600053  -7.4976902321856524  23.967257731869026  0.000000
0.375  0.000000  0.000000  0.000000  -30.36757494193257  0.8439505138933467  16.7550209268012  56.11837241268962  -8.805320840619718  -14.708124493073555  21.599730910742014  27.660290765563424  -8.05649530625564  23.86423507077511  0.000000
0.39  0.000000  0.000000  0.000000  -30.470335124123824  0.9291680096386766  16.960157445694488  56.19434370933546  -8.819815212743467  -14.704187892445914  21.619692849743746  28.456800988874452  -8.602329072545146  23.7580128586113  0.000000
0.40499999999999997  0.000000  0.000000  0.000000  -30.57435325281542  1.0217665772611613  17.166029445277676  56.275585841120225  -8.822760957220186  -14.690305227236086  21.633959002581975  29.251929529639643  -9.134135509740736  23.64850422143573  0.000000
0.42  0.000000  0.000000  0.000000  -30.679413288320433  1.122141647191198  17.370780662254123  56.36194917456352  -8.812376204921955  -14.664457695023346  21.6439391319698  30.043521947929626  -9.652065939384176  23.53573570934126  0.000000
0.435  0.000000  0.000000  0.000000  -30.78584987276787  1.2316229273157249  17.573896005402666  56.4544507292817  -8.787038127939516  -14.62579620049791  21.65061039490241  30.830552568042048  -10.156329035829016  23.419410602962564  0.000000
0.44999999999999996  0.000000  0.000000  0.000000  -30.893199781277108  1.3507761815681212  17.774016251603893  56.55453659579182  -8.74525375171354  -14.573470580320896  21.654486864469362  31.612819000498313  -10.646404662802672  23.299324934223737  0.000000
0.46499999999999997  0.000000  0.000000  0.000000  -31.00436042651753  1.4797907481939028  17.971381741524603  56.66316812746834  -8.685754692439886  -14.505875649063524  21.655745656903687  32.39022028965042  -11.12181394139919  23.175445154827266  0.000000
0.48  0.000000  0.000000  0.000000  -31.119720402698192  1.6188690893589164  18.164682762723036  56.78144411796747  -8.607242562348183  -14.421616132008221  21.655050793702976  33.162316976873335  -11.583016829173769  23.04753628937649  0.000000
0.495  0.000000  0.000000  0.000000  -31.241592013866324  1.7683643917512653  18.354082185193032  56.91006191990897  -8.508519786315805  -14.319215611283797  21.65265392877254  33.92829823888178  -12.029930171599746  22.915482124705857  0.000000
0.51  0.000000  0.000000  0.000000  -31.369630461044842  1.928412288775233  18.538298733017957  57.04951080375468  -8.388387031647152  -14.19764222385819  21.649019846402947  34.68697304006867  -12.463072285466842  22.779099553457346  0.000000
0.525  0.000000  0.000000  0.000000  -31.505389923932704  2.0990869476262515  18.71763503668552  57.19993992577612  -8.24583788242341  -14.056277475129948  21.64437575237906  35.437020561800296  -12.882729763150143  22.638193706942246  0.000000
0.54  0.000000  0.000000  0.000000  -31.647759340950692  2.2799583614151917  18.891109836659446  57.361085675772465  -8.079949421712342  -13.895300262637376  21.639075334417633  36.176859282853  -13.289616042104461  22.492599721618905  0.000000
0.5549999999999999  0.000000  0.000000  0.000000  -31.797513535229584  2.470355481392732  19.059566372254515  57.5322307413053  -7.890188785536626  -13.715744796194  21.633322039949608  36.90502013332256  -13.684348538169903  22.342135465637046  0.000000
0.57  0.000000  0.000000  0.000000  -31.95274421865499  2.6689670219482307  19.222667572275466  57.712122626561076  -7.676243029552189  -13.519699720895568  21.62746605289176  37.61999071892912  -14.067880558942907  22.18670201063424  0.000000
0.585  0.000000  0.000000  0.000000  -32.11353999606052  2.874318530008297  19.38209951721836  57.89902610051671  -7.438435786399753  -13.310196276062948  21.621801467340628  38.320601313989386  -14.441086881610936  22.02623247031598  0.000000
0.6  0.000000  0.000000  0.000000  -32.27756652129667  3.0844649867292815  19.53828407379215  58.090750880471596  -7.177460293846426  -13.090989778044996  21.616872417214466  39.00588023090694  -14.805120763648928  21.860788986171645  0.000000
0.615  0.000000  0.000000  0.000000  -32.444804193916944  3.2976733218097336  19.693634038341717  58.28483389396611  -6.89476333074877  -12.866240413430805  21.61325498704032  39.675313378999554  -15.161015352630297  21.690503432536445  0.000000
0.63  0.000000  0.000000  0.000000  -32.61289885415444  3.512231166879456  19.848976632833754  58.47865653944498  -6.59213443286323  -12.640051783443761  21.611695171487092  40.32858564953536  -15.509935374108275  21.51556258618678  0.000000
0.645  0.000000  0.000000  0.000000  -32.782128970004834  3.727011625708147  20.006843862110056  58.66970004943287  -6.271955133086366  -12.416103129409725  21.612931990293376  40.965773637040954  -15.852827205746172  21.33622704780976  0.000000
0.6599999999999999  0.000000  0.000000  0.000000  -32.95073117035388  3.941015643680627  20.16783341858252  58.85563548490671  -5.93673626321647  -12.19727125506409  21.6178272293336  41.587112189244195  -16.190706524921342  21.1527675064756  0.000000
0.6749999999999999  0.000000  0.000000  0.000000  -33.119446183684516  4.153786315637028  20.333895208915795  59.03440090040628  -5.589088579028204  -11.985712863283798  21.62716448175328  42.193124765582475  -16.52440470369804  20.965419731952103  0.000000
0.69  0.000000  0.000000  0.000000  -33.286854678345954  4.364904236389977  20.504935524507946  59.204233535737366  -5.231426842954823  -11.782691698788472  21.64167674204797  42.784249835593684  -16.854701329513198  20.774447336206975  0.000000
0.705  0.000000  0.000000  0.000000  -33.45420984858537  4.574596334352372  20.68211843477236  59.363947724846675  -4.866035065965377  -11.588826578892757  21.661976603662872  43.361058193049054  -17.182276391872385  20.580230166521872  0.000000
